<svg width="30" height="30" viewBox="0 0 30 30" fill="none" xmlns="http://www.w3.org/2000/svg">
<path d="M28.3334 11.0001H27.6668M28.3334 15.0001H27.6668M28.3334 19.0001H27.6668M2.33341 11L1.66675 11M2.33341 15L1.66675 15M2.33341 19L1.66675 19M11.0001 1.66671V2.33337M15.0001 1.66672V2.33337M19.0001 1.66672V2.33339M11.0001 27.6667V28.3334M15.0001 27.6667V28.3334M19.0001 27.6667V28.3334M10.731 16.8H15.354M15.7507 18L13.8067 12H12.2947L10.3507 18M19.05 18V12M10.8519 5.66667H19.1481C22.0118 5.66667 24.3333 7.98815 24.3333 10.8519V19.1481C24.3333 22.0118 22.0118 24.3333 19.1481 24.3333H10.8519C7.98815 24.3333 5.66667 22.0118 5.66667 19.1481V10.8519C5.66667 7.98815 7.98815 5.66667 10.8519 5.66667Z" stroke="#FFF629" stroke-width="1.5" stroke-linecap="round" stroke-linejoin="round"/>
</svg>
