<svg width="26" height="26" viewBox="0 0 26 26" fill="none" xmlns="http://www.w3.org/2000/svg">
<path d="M16.4 18.044L12.4227 25M2.90667 6.52L6.91867 13.4M15.6667 7.54667C15.6667 9.01943 14.4728 10.2133 13 10.2133C11.5272 10.2133 10.3333 9.01943 10.3333 7.54667C10.3333 6.07391 11.5272 4.88 13 4.88C14.4728 4.88 15.6667 6.07391 15.6667 7.54667ZM15.6667 7.54667H23.6933M13 1C15.3734 1 17.6935 1.70379 19.6668 3.02237C21.6402 4.34094 23.1783 6.21509 24.0866 8.4078C24.9948 10.6005 25.2324 13.0133 24.7694 15.3411C24.3064 17.6689 23.1635 19.8071 21.4853 21.4853C19.8071 23.1635 17.6689 24.3064 15.3411 24.7694C13.0133 25.2324 10.6005 24.9948 8.4078 24.0866C6.21509 23.1783 4.34094 21.6402 3.02237 19.6668C1.70379 17.6935 1 15.3734 1 13C1 9.8174 2.26428 6.76516 4.51472 4.51472C6.76516 2.26428 9.8174 1 13 1ZM10.9467 15.7333C10.9467 17.2061 9.75276 18.4 8.28 18.4C6.80724 18.4 5.61333 17.2061 5.61333 15.7333C5.61333 14.2606 6.80724 13.0667 8.28 13.0667C9.75276 13.0667 10.9467 14.2606 10.9467 15.7333ZM20.392 15.7333C20.392 17.2061 19.1981 18.4 17.7253 18.4C16.2526 18.4 15.0587 17.2061 15.0587 15.7333C15.0587 14.2606 16.2526 13.0667 17.7253 13.0667C19.1981 13.0667 20.392 14.2606 20.392 15.7333Z" stroke="#2AFFFF" stroke-width="1.5" stroke-linecap="round" stroke-linejoin="round"/>
</svg>
