<svg width="26" height="28" viewBox="0 0 26 28" fill="none" xmlns="http://www.w3.org/2000/svg">
<path d="M9.2 22.16L10.1867 18.2533M15.8133 18.2533L16.7867 22.1733M7.05333 5.70667C7.42225 4.53776 8.15325 3.51641 9.1407 2.7902C10.1282 2.06399 11.3209 1.67053 12.5467 1.66667H13.4533C14.6791 1.67053 15.8718 2.06399 16.8593 2.7902C17.8468 3.51641 18.5778 4.53776 18.9467 5.70667M18.7467 13.64V13.68C18.6349 15.1275 17.981 16.4796 16.9156 17.4658C15.8502 18.4521 14.4518 19 13 19C11.5482 19 10.1498 18.4521 9.08442 17.4658C8.01904 16.4796 7.36511 15.1275 7.25333 13.68V13.64M10.3333 9H15.6667M1 27V26.488C0.999942 25.5632 1.32035 24.6669 1.9067 23.9517C2.49305 23.2365 3.30911 22.7466 4.216 22.5653L8.5 21.708L8.916 21.9853C10.1253 22.7919 11.5464 23.2224 13 23.2224C14.4536 23.2224 15.8747 22.7919 17.084 21.9853L17.5 21.708L21.784 22.5653C22.6909 22.7466 23.5069 23.2365 24.0933 23.9517C24.6796 24.6669 25.0001 25.5632 25 26.488V27M18.5172 13.6667H7.48276C6.83698 13.6718 6.215 13.4231 5.75067 12.9743C5.28635 12.5255 5.01679 11.9123 5 11.2667V8.06667C5.01679 7.42109 5.28635 6.80789 5.75067 6.35904C6.215 5.9102 6.83698 5.66157 7.48276 5.66667H18.5925C19.2265 5.67704 19.8317 5.93299 20.2808 6.38064C20.7298 6.82829 20.9877 7.43272 21 8.06667V11.3394C20.9676 11.9731 20.6908 12.5697 20.2279 13.0036C19.7649 13.4376 19.1518 13.6753 18.5172 13.6667Z" stroke="#6C7CFF" stroke-width="1.5" stroke-linecap="round" stroke-linejoin="round"/>
</svg>
