<svg width="26" height="26" viewBox="0 0 26 26" fill="none" xmlns="http://www.w3.org/2000/svg">
<path d="M25 13C25 10.4107 19.628 8.312 13 8.312H11.6667M25 13C25 19.6274 19.6274 25 13 25M25 13C25 6.37258 19.6274 1 13 1M25 13C25 14.9871 21.8311 16.6812 17.3636 17.3636M12.54 15.888L14.34 17.688M14.34 17.688L12.54 19.488M14.34 17.688H13C6.372 17.688 1 15.5893 1 13M13 25C6.37258 25 1 19.6274 1 13M13 25C15.5893 25 17.688 19.628 17.688 13V11.66M13 25C11.0129 25 9.31876 21.8311 8.63639 17.3636M1 13C1 6.37258 6.37258 1 13 1M1 13C1 11.0129 4.16895 9.31876 8.63639 8.63639M13 1C10.4107 1 8.312 6.372 8.312 13V14.3333M13 1C14.9871 1 16.6812 4.16895 17.3636 8.63639" stroke="#CA59FF" stroke-width="1.5" stroke-linecap="round" stroke-linejoin="round"/>
</svg>
